<svg width="170" height="29" viewBox="0 0 170 29" fill="none" xmlns="http://www.w3.org/2000/svg">
<path d="M13.3472 19.1841C12.9739 19.1841 12.6005 19.0441 12.3205 18.7641L11.5622 18.0058C11.2239 17.6675 11.2239 17.1075 11.5622 16.7691C11.9005 16.4308 12.4605 16.4308 12.7989 16.7691L13.3589 17.3291L15.2372 15.6025C15.5872 15.2758 16.1472 15.2991 16.4739 15.6491C16.8005 15.9991 16.7772 16.5591 16.4272 16.8858L14.3505 18.7991C14.0589 19.0558 13.7089 19.1841 13.3472 19.1841Z" fill="white"/>
<path d="M18.6672 27.2578H9.33392C3.94392 27.2578 2.94059 24.7495 2.68392 22.3112L1.80892 12.9662C1.68059 11.7412 1.64559 9.93283 2.85892 8.5795C3.90892 7.41283 5.64726 6.85283 8.16726 6.85283H19.8339C22.3656 6.85283 24.1039 7.4245 25.1422 8.5795C26.3556 9.93283 26.3206 11.7412 26.1922 12.9778L25.3172 22.2995C25.0606 24.7495 24.0572 27.2578 18.6672 27.2578ZM8.16726 8.59116C6.19559 8.59116 4.84226 8.97616 4.15392 9.74616C3.58226 10.3762 3.39559 11.3445 3.54726 12.7912L4.42226 22.1362C4.62059 23.9795 5.12226 25.5078 9.33392 25.5078H18.6672C22.8672 25.5078 23.3806 23.9795 23.5789 22.1245L24.4539 12.8028C24.6056 11.3445 24.4189 10.3762 23.8472 9.74616C23.1589 8.97616 21.8056 8.59116 19.8339 8.59116H8.16726Z" fill="white"/>
<path d="M18.6673 8.59078C18.189 8.59078 17.7923 8.19412 17.7923 7.71578V6.78245C17.7923 4.70578 17.7923 3.92412 14.934 3.92412H13.0673C10.209 3.92412 10.209 4.70578 10.209 6.78245V7.71578C10.209 8.19412 9.81232 8.59078 9.33398 8.59078C8.85565 8.59078 8.45898 8.19412 8.45898 7.71578V6.78245C8.45898 4.72912 8.45898 2.17412 13.0673 2.17412H14.934C19.5423 2.17412 19.5423 4.72912 19.5423 6.78245V7.71578C19.5423 8.19412 19.1456 8.59078 18.6673 8.59078Z" fill="white"/>
<path d="M18.6789 17.5041C18.2822 17.5041 17.9322 17.2358 17.8272 16.8391C17.7106 16.3725 17.9906 15.8941 18.4572 15.7775C20.7322 15.2058 22.8439 14.2141 24.7339 12.8375C25.1189 12.5575 25.6672 12.6391 25.9589 13.0358C26.2389 13.4208 26.1572 13.9691 25.7606 14.2608C23.6839 15.7658 21.3739 16.8508 18.8772 17.4808C18.8189 17.4925 18.7489 17.5041 18.6789 17.5041Z" fill="white"/>
<path d="M9.33418 17.5394C9.26418 17.5394 9.19418 17.5278 9.12418 17.5161C6.77918 16.9444 4.57418 15.9528 2.55584 14.5761C2.15918 14.3078 2.05418 13.7594 2.32251 13.3628C2.59084 12.9661 3.13918 12.8611 3.53584 13.1294C5.37918 14.3894 7.38584 15.2878 9.53251 15.8128C9.99918 15.9294 10.2908 16.3961 10.1742 16.8744C10.0925 17.2711 9.73084 17.5394 9.33418 17.5394Z" fill="white"/>
<path d="M42.56 21.7161V9.83611H38.26V7.71611H49.18V9.83611H44.88V21.7161H42.56ZM51.345 16.3961C51.345 15.3161 51.5517 14.4294 51.965 13.7361C52.3783 13.0428 52.9117 12.5294 53.565 12.1961C54.2317 11.8494 54.925 11.6761 55.645 11.6761V13.8161C55.0317 13.8161 54.4517 13.9028 53.905 14.0761C53.3717 14.2361 52.9383 14.5028 52.605 14.8761C52.2717 15.2494 52.105 15.7428 52.105 16.3561L51.345 16.3961ZM49.865 21.7161V11.7161H52.105V21.7161H49.865ZM63.2306 21.7161L63.1306 19.8361V16.5761C63.1306 15.8961 63.0573 15.3294 62.9106 14.8761C62.7773 14.4094 62.5506 14.0561 62.2306 13.8161C61.924 13.5628 61.5106 13.4361 60.9906 13.4361C60.5106 13.4361 60.0906 13.5361 59.7306 13.7361C59.3706 13.9361 59.064 14.2494 58.8106 14.6761L56.8506 13.9561C57.064 13.5161 57.344 13.1094 57.6906 12.7361C58.0506 12.3494 58.4973 12.0428 59.0306 11.8161C59.5773 11.5894 60.2306 11.4761 60.9906 11.4761C61.964 11.4761 62.7773 11.6694 63.4306 12.0561C64.084 12.4294 64.564 12.9694 64.8706 13.6761C65.1906 14.3828 65.3506 15.2361 65.3506 16.2361L65.2906 21.7161H63.2306ZM60.3506 21.9561C59.1506 21.9561 58.2173 21.6894 57.5506 21.1561C56.8973 20.6228 56.5706 19.8694 56.5706 18.8961C56.5706 17.8561 56.9173 17.0628 57.6106 16.5161C58.3173 15.9694 59.2973 15.6961 60.5506 15.6961H63.2306V17.4161H61.2706C60.3773 17.4161 59.7506 17.5428 59.3906 17.7961C59.0306 18.0361 58.8506 18.3828 58.8506 18.8361C58.8506 19.2228 59.004 19.5294 59.3106 19.7561C59.6306 19.9694 60.0706 20.0761 60.6306 20.0761C61.1373 20.0761 61.5773 19.9628 61.9506 19.7361C62.324 19.5094 62.6106 19.2094 62.8106 18.8361C63.024 18.4628 63.1306 18.0428 63.1306 17.5761H63.7906C63.7906 18.9361 63.5173 20.0094 62.9706 20.7961C62.424 21.5694 61.5506 21.9561 60.3506 21.9561ZM67.6189 21.7161V11.7161H69.7189L69.8189 13.0561C70.1256 12.5361 70.5189 12.1428 70.9989 11.8761C71.4789 11.6094 72.0256 11.4761 72.6389 11.4761C73.4389 11.4761 74.1189 11.6561 74.6789 12.0161C75.2389 12.3761 75.6456 12.9228 75.8989 13.6561C76.1922 12.9494 76.6056 12.4094 77.1389 12.0361C77.6722 11.6628 78.2989 11.4761 79.0189 11.4761C80.1789 11.4761 81.0722 11.8494 81.6989 12.5961C82.3256 13.3294 82.6322 14.4628 82.6189 15.9961V21.7161H80.3989V16.5961C80.3989 15.7961 80.3122 15.1828 80.1389 14.7561C79.9656 14.3161 79.7322 14.0094 79.4389 13.8361C79.1456 13.6628 78.8056 13.5761 78.4189 13.5761C77.7256 13.5628 77.1856 13.8094 76.7989 14.3161C76.4256 14.8228 76.2389 15.5494 76.2389 16.4961V21.7161H73.9989V16.5961C73.9989 15.7961 73.9122 15.1828 73.7389 14.7561C73.5789 14.3161 73.3522 14.0094 73.0589 13.8361C72.7656 13.6628 72.4256 13.5761 72.0389 13.5761C71.3456 13.5628 70.8056 13.8094 70.4189 14.3161C70.0456 14.8228 69.8589 15.5494 69.8589 16.4961V21.7161H67.6189ZM85.0041 25.7161V11.7161H87.1041L87.2441 13.5561V25.7161H85.0041ZM90.4041 21.9561C89.5641 21.9561 88.8374 21.7428 88.2241 21.3161C87.6241 20.8761 87.1641 20.2628 86.8441 19.4761C86.5241 18.6894 86.3641 17.7694 86.3641 16.7161C86.3641 15.6494 86.5241 14.7294 86.8441 13.9561C87.1641 13.1694 87.6241 12.5628 88.2241 12.1361C88.8374 11.6961 89.5641 11.4761 90.4041 11.4761C91.3107 11.4761 92.0974 11.6961 92.7641 12.1361C93.4441 12.5628 93.9707 13.1694 94.3441 13.9561C94.7307 14.7294 94.9241 15.6494 94.9241 16.7161C94.9241 17.7694 94.7307 18.6894 94.3441 19.4761C93.9707 20.2628 93.4441 20.8761 92.7641 21.3161C92.0974 21.7428 91.3107 21.9561 90.4041 21.9561ZM89.8441 19.9161C90.3774 19.9161 90.8507 19.7828 91.2641 19.5161C91.6774 19.2361 92.0041 18.8561 92.2441 18.3761C92.4974 17.8961 92.6241 17.3428 92.6241 16.7161C92.6241 16.0894 92.5041 15.5361 92.2641 15.0561C92.0374 14.5761 91.7174 14.2028 91.3041 13.9361C90.8907 13.6694 90.4107 13.5361 89.8641 13.5361C89.3574 13.5361 88.9041 13.6694 88.5041 13.9361C88.1041 14.2028 87.7907 14.5761 87.5641 15.0561C87.3507 15.5361 87.2441 16.0894 87.2441 16.7161C87.2441 17.3428 87.3507 17.8961 87.5641 18.3761C87.7907 18.8561 88.0974 19.2361 88.4841 19.5161C88.8841 19.7828 89.3374 19.9161 89.8441 19.9161ZM101.438 21.9561C100.438 21.9561 99.5443 21.7361 98.7577 21.2961C97.9843 20.8428 97.3777 20.2228 96.9377 19.4361C96.4977 18.6494 96.2777 17.7428 96.2777 16.7161C96.2777 15.6894 96.491 14.7828 96.9177 13.9961C97.3577 13.2094 97.9643 12.5961 98.7377 12.1561C99.511 11.7028 100.398 11.4761 101.398 11.4761C102.398 11.4761 103.284 11.7028 104.058 12.1561C104.831 12.5961 105.431 13.2094 105.858 13.9961C106.298 14.7828 106.518 15.6894 106.518 16.7161C106.518 17.7428 106.304 18.6494 105.878 19.4361C105.451 20.2228 104.851 20.8428 104.078 21.2961C103.304 21.7361 102.424 21.9561 101.438 21.9561ZM101.438 19.8961C101.984 19.8961 102.471 19.7628 102.898 19.4961C103.324 19.2161 103.658 18.8428 103.898 18.3761C104.138 17.8961 104.258 17.3428 104.258 16.7161C104.258 16.0894 104.131 15.5428 103.878 15.0761C103.638 14.5961 103.304 14.2228 102.878 13.9561C102.451 13.6761 101.958 13.5361 101.398 13.5361C100.838 13.5361 100.344 13.6694 99.9177 13.9361C99.491 14.2028 99.1577 14.5761 98.9177 15.0561C98.6777 15.5361 98.5577 16.0894 98.5577 16.7161C98.5577 17.3428 98.6777 17.8961 98.9177 18.3761C99.171 18.8428 99.511 19.2161 99.9377 19.4961C100.378 19.7628 100.878 19.8961 101.438 19.8961ZM113.703 21.7161V7.71611H122.403V9.83611H116.023V13.7561H121.483V15.8761H116.023V21.7161H113.703ZM124.419 21.7161V11.7161H126.639V21.7161H124.419ZM125.539 9.81611C125.179 9.81611 124.866 9.68944 124.599 9.43611C124.346 9.16944 124.219 8.85611 124.219 8.49611C124.219 8.13611 124.346 7.82944 124.599 7.57611C124.866 7.32278 125.179 7.19611 125.539 7.19611C125.899 7.19611 126.206 7.32278 126.459 7.57611C126.726 7.82944 126.859 8.13611 126.859 8.49611C126.859 8.85611 126.726 9.16944 126.459 9.43611C126.206 9.68944 125.899 9.81611 125.539 9.81611ZM129.279 21.7161V11.7161H131.379L131.519 13.5561V21.7161H129.279ZM136.059 21.7161V16.5961H138.299V21.7161H136.059ZM136.059 16.5961C136.059 15.7961 135.966 15.1828 135.779 14.7561C135.606 14.3161 135.352 14.0094 135.019 13.8361C134.699 13.6628 134.319 13.5761 133.879 13.5761C133.132 13.5628 132.552 13.8094 132.139 14.3161C131.726 14.8228 131.519 15.5494 131.519 16.4961H130.679C130.679 15.4428 130.832 14.5428 131.139 13.7961C131.446 13.0361 131.886 12.4628 132.459 12.0761C133.032 11.6761 133.712 11.4761 134.499 11.4761C135.299 11.4761 135.979 11.6361 136.539 11.9561C137.112 12.2761 137.546 12.7761 137.839 13.4561C138.146 14.1228 138.299 14.9961 138.299 16.0761V16.5961H136.059ZM147.788 21.7161L147.688 19.8561V7.71611H149.908V21.7161H147.788ZM144.528 21.9561C143.621 21.9561 142.828 21.7428 142.148 21.3161C141.481 20.8761 140.955 20.2628 140.568 19.4761C140.195 18.6894 140.008 17.7694 140.008 16.7161C140.008 15.6494 140.195 14.7294 140.568 13.9561C140.955 13.1694 141.481 12.5628 142.148 12.1361C142.828 11.6961 143.621 11.4761 144.528 11.4761C145.368 11.4761 146.088 11.6961 146.688 12.1361C147.301 12.5628 147.768 13.1694 148.088 13.9561C148.408 14.7294 148.568 15.6494 148.568 16.7161C148.568 17.7694 148.408 18.6894 148.088 19.4761C147.768 20.2628 147.301 20.8761 146.688 21.3161C146.088 21.7428 145.368 21.9561 144.528 21.9561ZM145.088 19.9161C145.595 19.9161 146.041 19.7828 146.428 19.5161C146.828 19.2361 147.135 18.8561 147.348 18.3761C147.575 17.8961 147.688 17.3428 147.688 16.7161C147.688 16.0894 147.575 15.5361 147.348 15.0561C147.135 14.5761 146.828 14.2028 146.428 13.9361C146.041 13.6694 145.588 13.5361 145.068 13.5361C144.535 13.5361 144.061 13.6694 143.648 13.9361C143.235 14.2028 142.908 14.5761 142.668 15.0561C142.441 15.5361 142.321 16.0894 142.308 16.7161C142.321 17.3428 142.441 17.8961 142.668 18.3761C142.908 18.8561 143.235 19.2361 143.648 19.5161C144.075 19.7828 144.555 19.9161 145.088 19.9161ZM156.845 21.9561C155.871 21.9561 155.005 21.7361 154.245 21.2961C153.498 20.8428 152.905 20.2228 152.465 19.4361C152.038 18.6494 151.825 17.7428 151.825 16.7161C151.825 15.6894 152.045 14.7828 152.485 13.9961C152.925 13.2094 153.525 12.5961 154.285 12.1561C155.058 11.7028 155.938 11.4761 156.925 11.4761C157.818 11.4761 158.625 11.7094 159.345 12.1761C160.065 12.6294 160.631 13.2894 161.045 14.1561C161.471 15.0228 161.685 16.0561 161.685 17.2561H153.825L154.125 16.9761C154.125 17.5894 154.258 18.1228 154.525 18.5761C154.791 19.0161 155.145 19.3561 155.585 19.5961C156.025 19.8361 156.511 19.9561 157.045 19.9561C157.658 19.9561 158.165 19.8228 158.565 19.5561C158.965 19.2761 159.278 18.9161 159.505 18.4761L161.485 19.3161C161.205 19.8494 160.845 20.3161 160.405 20.7161C159.978 21.1161 159.465 21.4228 158.865 21.6361C158.278 21.8494 157.605 21.9561 156.845 21.9561ZM154.265 15.8161L153.945 15.5361H159.585L159.285 15.8161C159.285 15.2694 159.165 14.8228 158.925 14.4761C158.685 14.1161 158.378 13.8494 158.005 13.6761C157.645 13.4894 157.265 13.3961 156.865 13.3961C156.465 13.3961 156.065 13.4894 155.665 13.6761C155.265 13.8494 154.931 14.1161 154.665 14.4761C154.398 14.8228 154.265 15.2694 154.265 15.8161ZM164.88 16.3961C164.88 15.3161 165.087 14.4294 165.5 13.7361C165.913 13.0428 166.447 12.5294 167.1 12.1961C167.767 11.8494 168.46 11.6761 169.18 11.6761V13.8161C168.567 13.8161 167.987 13.9028 167.44 14.0761C166.907 14.2361 166.473 14.5028 166.14 14.8761C165.807 15.2494 165.64 15.7428 165.64 16.3561L164.88 16.3961ZM163.4 21.7161V11.7161H165.64V21.7161H163.4Z" fill="white"/>
</svg>
