<svg width="111" height="27" viewBox="0 0 111 27" fill="none" xmlns="http://www.w3.org/2000/svg">
<path d="M8.38604 2.457C8.38604 2.59367 8.37238 2.68933 8.34504 2.744C8.34504 2.79867 8.33138 2.85333 8.30404 2.908C8.35871 3.04466 8.38604 3.16766 8.38604 3.277C8.38604 3.359 8.37238 3.441 8.34504 3.523C8.34504 3.605 8.34504 3.71433 8.34504 3.851C8.34504 3.96033 8.37238 4.11067 8.42704 4.302C8.56371 4.68467 8.70038 4.94433 8.83704 5.081C8.97371 5.19033 9.13771 5.31333 9.32904 5.45C9.05571 5.696 8.91904 5.91467 8.91904 6.106C8.91904 6.27 8.97371 6.40667 9.08304 6.516C9.19238 6.62533 9.35638 6.721 9.57504 6.803C9.62971 6.85767 9.75271 6.967 9.94404 7.131C10.1354 7.26767 10.3267 7.30867 10.518 7.254L13.224 11.682L17.898 17.668C18.226 17.6953 18.4037 17.5177 18.431 17.135C18.4857 16.725 18.472 16.2877 18.39 15.823C18.3354 15.331 18.2534 14.8937 18.144 14.511C18.0347 14.1283 17.98 13.9643 17.98 14.019C17.898 13.2263 17.816 12.6113 17.734 12.174C17.652 11.7367 17.6794 11.2583 17.816 10.739C17.9527 10.6023 17.98 10.329 17.898 9.919C17.816 9.48167 17.7067 9.04433 17.57 8.607C17.5154 8.361 17.488 8.08767 17.488 7.787C17.488 7.48633 17.5017 7.18567 17.529 6.885C17.5564 6.58433 17.57 6.311 17.57 6.065C17.5974 5.819 17.5974 5.62767 17.57 5.491C17.57 5.21767 17.5427 4.958 17.488 4.712C17.4334 4.466 17.447 4.23367 17.529 4.015C17.5564 3.90566 17.57 3.83733 17.57 3.81C17.5974 3.75533 17.611 3.70067 17.611 3.646C17.611 3.59133 17.5974 3.50933 17.57 3.4C17.57 3.29067 17.57 3.12667 17.57 2.908L18.144 2.334C18.226 2.22466 18.3627 2.14266 18.554 2.088C18.7454 2.03333 18.9367 2.006 19.128 2.006C19.3467 1.97867 19.538 1.965 19.702 1.965C19.8934 1.965 20.03 1.97867 20.112 2.006C20.3034 2.06067 20.522 2.10167 20.768 2.129C21.0414 2.129 21.2737 2.11533 21.465 2.088L22.203 2.293L22.654 4.302C22.2714 4.712 22.0527 5.10833 21.998 5.491C21.9434 5.87367 21.9297 6.25633 21.957 6.639C21.957 7.295 21.9707 7.787 21.998 8.115C22.0527 8.41567 22.1074 8.63433 22.162 8.771C22.244 8.90767 22.3124 8.98967 22.367 9.017C22.449 9.04433 22.5174 9.08533 22.572 9.14C22.5174 9.35867 22.4217 9.57733 22.285 9.796C22.1757 9.98733 22.039 10.1923 21.875 10.411C21.793 10.5203 21.752 10.657 21.752 10.821C21.7794 10.9577 21.834 11.0943 21.916 11.231C21.998 11.3677 22.0937 11.4907 22.203 11.6C22.3124 11.682 22.4217 11.7093 22.531 11.682C22.5857 11.764 22.5857 11.9963 22.531 12.379C22.4764 12.7343 22.531 13.486 22.695 14.634C22.7497 15.208 22.736 15.7 22.654 16.11C22.5994 16.4927 22.531 16.8343 22.449 17.135C22.367 17.4083 22.285 17.668 22.203 17.914C22.1484 18.1327 22.1347 18.365 22.162 18.611C22.1894 18.611 22.2167 18.734 22.244 18.98C22.2714 19.226 22.2987 19.4993 22.326 19.8C22.3534 20.0733 22.3807 20.333 22.408 20.579C22.4627 20.7977 22.5174 20.8933 22.572 20.866C22.5174 21.85 22.531 22.711 22.613 23.449C22.7224 24.187 22.736 24.597 22.654 24.679L22.818 25.212L21.137 25.827C20.973 25.827 20.809 25.827 20.645 25.827C20.481 25.827 20.3307 25.8407 20.194 25.868C19.9207 25.8953 19.6474 25.9227 19.374 25.95C19.1007 25.9773 18.882 26.0047 18.718 26.032L17.898 25.581C17.9254 25.3077 17.98 25.1163 18.062 25.007C18.2534 24.8977 18.3217 24.4877 18.267 23.777C18.2397 23.531 18.1714 23.3807 18.062 23.326C17.98 23.2713 17.898 23.1757 17.816 23.039L12.035 15.331C11.953 15.249 11.8847 15.167 11.83 15.085C11.7207 14.9483 11.6114 14.7023 11.502 14.347C11.3927 13.9917 11.2287 13.6227 11.01 13.24C10.8187 12.83 10.4907 12.4747 10.026 12.174L9.78004 9.878C9.69804 9.468 9.26071 9.37233 8.46804 9.591C8.33138 9.70033 8.24938 9.80967 8.22204 9.919C8.19471 10.0283 8.18104 10.1377 8.18104 10.247C8.20838 10.3563 8.23571 10.4657 8.26304 10.575C8.29038 10.6843 8.29038 10.78 8.26304 10.862C8.23571 10.9713 8.20838 11.067 8.18104 11.149C8.15371 11.2037 8.12638 11.2993 8.09904 11.436C8.09904 11.5727 8.08538 11.7777 8.05804 12.051C8.03071 12.297 8.00338 12.666 7.97604 13.158C7.94871 13.65 7.90771 14.1557 7.85304 14.675C7.82571 15.167 7.79838 15.6453 7.77104 16.11C7.77104 16.5473 7.79838 16.93 7.85304 17.258C7.93504 17.586 8.05804 17.8047 8.22204 17.914C8.22204 18.242 8.09904 19.595 7.85304 21.973C7.77104 22.8477 7.70271 23.5857 7.64804 24.187C7.62071 24.761 7.59338 25.2257 7.56604 25.581L7.03304 26.237C6.67771 26.2917 6.21304 26.3463 5.63904 26.401C5.09238 26.4557 4.53204 26.5103 3.95804 26.565C3.41138 26.6197 2.89204 26.6607 2.40004 26.688C1.93538 26.7153 1.60738 26.729 1.41604 26.729C1.25204 26.729 1.07438 26.6743 0.883043 26.565C0.69171 26.4557 0.52771 26.2507 0.391043 25.95C0.555043 25.7313 0.65071 25.6357 0.678043 25.663C0.705376 25.663 0.664376 25.663 0.555043 25.663V21.153L1.08804 20.251L0.473043 18.734L0.555043 17.586C0.555043 17.4493 0.582376 17.2307 0.637043 16.93C0.69171 16.602 0.746376 16.2467 0.801043 15.864C0.85571 15.4813 0.89671 15.0987 0.924043 14.716C0.97871 14.306 0.992376 13.937 0.965043 13.609C0.910376 12.9803 0.869376 12.502 0.842043 12.174C0.81471 11.8187 0.801043 11.6137 0.801043 11.559C0.801043 11.4497 0.869377 11.2583 1.00604 10.985C1.17004 10.6843 1.30671 10.4383 1.41604 10.247C1.49804 10.1103 1.52538 9.97367 1.49804 9.837C1.47071 9.673 1.47071 9.53633 1.49804 9.427C1.55271 9.31767 1.62104 9.23567 1.70304 9.181C1.78504 9.099 1.79871 9.12633 1.74404 9.263C1.90804 9.345 1.93538 9.14 1.82604 8.648C1.74404 8.156 1.68938 7.55467 1.66204 6.844L1.62104 4.671C1.59371 4.53433 1.56638 4.41133 1.53904 4.302C1.53904 4.19267 1.47071 4.02867 1.33404 3.81C1.71671 3.61867 1.93538 3.441 1.99004 3.277C2.04471 3.113 2.07204 2.867 2.07204 2.539C2.29071 2.457 2.63238 2.40233 3.09704 2.375C3.58904 2.32033 4.10838 2.27933 4.65504 2.252C5.20171 2.19733 5.73471 2.14266 6.25404 2.088C6.77338 2.006 7.19704 1.91033 7.52504 1.801L8.38604 2.457ZM37.818 1.104V4.302C37.49 5.58667 37.2166 6.721 36.998 7.705C36.8066 8.66167 36.6563 9.55 36.547 10.37C36.4376 11.19 36.3693 11.969 36.342 12.707C36.342 13.445 36.3693 14.224 36.424 15.044C36.4786 16.028 36.4513 16.9163 36.342 17.709C36.2326 18.5017 36.1233 19.226 36.014 19.882C35.932 20.538 35.8773 21.1667 35.85 21.768C35.8226 22.342 35.9046 22.9297 36.096 23.531L36.301 24.556L35.604 25.745L30.151 26.811L28.675 25.868C28.7023 25.7587 28.8526 25.6083 29.126 25.417C29.4266 25.1983 29.577 24.9797 29.577 24.761C29.577 24.433 29.577 24.2007 29.577 24.064C29.577 23.9273 29.5496 23.7087 29.495 23.408C29.4403 23.2713 29.5086 22.834 29.7 22.096C29.9186 21.3307 30.0143 20.292 29.987 18.98C29.987 18.324 29.987 17.8457 29.987 17.545C30.0143 17.217 30.028 17.012 30.028 16.93C30.0553 16.8207 30.0553 16.7797 30.028 16.807C30.028 16.8343 30.0006 16.848 29.946 16.848C29.9733 16.6293 30.0143 16.3833 30.069 16.11C30.1236 15.8093 30.1783 15.5087 30.233 15.208C30.2876 15.044 30.3286 14.88 30.356 14.716C30.3833 14.552 30.4106 14.3743 30.438 14.183C30.52 14.101 30.5063 13.937 30.397 13.691C30.315 13.445 30.2193 13.2537 30.11 13.117C30.028 12.9803 29.987 12.9257 29.987 12.953C29.987 12.953 30.0143 12.953 30.069 12.953C30.1236 12.953 30.2056 12.8983 30.315 12.789C30.4243 12.6523 30.5336 12.3927 30.643 12.01L30.356 10.206C30.4106 10.206 30.4516 10.2197 30.479 10.247C30.5336 10.2743 30.561 10.2607 30.561 10.206C30.561 10.124 30.5473 9.97367 30.52 9.755C30.4926 9.53633 30.438 9.19467 30.356 8.73C30.2466 7.828 30.233 7.295 30.315 7.131C30.397 6.93967 30.52 6.85767 30.684 6.885C30.8206 6.77566 30.93 6.66633 31.012 6.557C31.1213 6.44767 31.1896 6.311 31.217 6.147C31.2443 5.983 31.2306 5.76433 31.176 5.491C31.1486 5.19033 31.0666 4.80767 30.93 4.343C30.7933 3.933 30.807 3.523 30.971 3.113C31.135 2.703 31.2306 2.293 31.258 1.883L32.119 1.022C32.5016 1.022 33.0073 1.022 33.636 1.022C34.2646 0.994665 34.8113 0.967332 35.276 0.939999C36.26 0.857998 36.9706 0.816998 37.408 0.816998L37.818 1.104ZM42.5778 23.572C42.6325 23.4627 42.6871 23.367 42.7418 23.285C42.7965 23.1757 42.8511 23.0663 42.9058 22.957C43.2065 22.465 43.3978 22.0003 43.4798 21.563C43.5618 21.1257 43.7121 20.8933 43.9308 20.866C44.1768 20.8387 44.3818 20.7567 44.5458 20.62C44.7371 20.4833 44.8601 20.333 44.9148 20.169C44.9968 19.9777 44.9968 19.8 44.9148 19.636C44.8601 19.4447 44.6961 19.2943 44.4228 19.185L47.9078 14.839C48.1811 14.9757 48.4271 14.8937 48.6458 14.593C48.8918 14.265 49.0831 13.8823 49.2198 13.445C49.3838 12.9803 49.4931 12.543 49.5478 12.133C49.6298 11.6957 49.6571 11.436 49.6298 11.354C49.7938 11.1353 50.0261 10.862 50.3268 10.534C50.6275 10.1787 50.9691 9.56367 51.3518 8.689C51.7618 7.81433 52.0625 7.131 52.2538 6.639C52.4725 6.147 52.6091 5.84633 52.6638 5.737C52.7731 5.491 52.8688 5.29966 52.9508 5.163C53.0328 5.02633 53.0875 4.94433 53.1148 4.917L52.4998 4.097C52.1991 4.12433 51.9805 4.23367 51.8438 4.425C51.7071 4.61633 51.4475 4.73933 51.0648 4.794C50.8735 4.82133 50.7095 4.84867 50.5728 4.876C50.4361 4.876 50.3131 4.876 50.2038 4.876C50.1218 4.90333 50.0261 4.917 49.9168 4.917C49.7255 4.917 49.3565 4.78033 48.8098 4.507C48.2905 4.23367 47.7165 4.015 47.0878 3.851C47.1151 3.90567 47.0878 3.96033 47.0058 4.015C46.9511 4.06967 46.8828 4.12433 46.8008 4.179C46.7461 4.23366 46.6915 4.28833 46.6368 4.343C46.5821 4.39767 46.5821 4.466 46.6368 4.548C46.5275 4.548 46.4318 4.53433 46.3498 4.507C46.2405 4.47967 46.1175 4.45233 45.9808 4.425C45.8441 4.39767 45.6801 4.35667 45.4888 4.302C45.1061 4.16533 44.7918 4.08333 44.5458 4.056C44.3271 4.00133 44.1905 3.974 44.1358 3.974C43.9991 3.974 43.9035 3.90567 43.8488 3.769C43.8488 3.74167 43.8351 3.646 43.8078 3.482C43.7805 3.29067 43.7395 3.072 43.6848 2.826C43.6575 2.58 43.6028 2.334 43.5208 2.088C43.4661 1.842 43.3978 1.65067 43.3158 1.514L43.8898 0.447998C44.3545 0.447998 44.8738 0.461665 45.4478 0.489C46.0218 0.516333 46.6641 0.557332 47.3748 0.611998C48.4681 0.693999 49.3838 0.762332 50.1218 0.816998C50.8598 0.871666 51.4611 0.885332 51.9258 0.857998C51.7618 1.65067 52.1445 1.82833 53.0738 1.391C53.3198 1.28166 53.5795 1.19966 53.8528 1.145C54.1535 1.063 54.4405 1.00833 54.7138 0.980998C55.0145 0.953665 55.2741 0.939999 55.4928 0.939999C55.7388 0.939999 55.9165 0.953665 56.0258 0.980998C56.3538 1.227 56.9415 1.36367 57.7888 1.391C58.2261 1.41833 58.6088 1.473 58.9368 1.555C59.2921 1.637 59.6201 1.78733 59.9208 2.006C59.8661 2.17 59.8251 2.375 59.7978 2.621C59.7705 2.867 59.7431 3.09933 59.7158 3.318C59.7158 3.53666 59.7158 3.728 59.7158 3.892C59.7158 4.056 59.7158 4.15167 59.7158 4.179C59.8251 4.343 60.0028 4.49333 60.2488 4.63L60.1668 4.794L60.0848 4.753C60.0848 5.21767 60.0848 5.50467 60.0848 5.614C60.1121 5.72333 60.0028 5.778 59.7568 5.778L59.7158 5.86L57.5018 10.083C56.3811 11.8597 55.4791 13.2947 54.7958 14.388C54.1398 15.4813 53.6205 16.3697 53.2378 17.053C52.8551 17.709 52.5681 18.242 52.3768 18.652C52.1855 19.0347 51.9941 19.4173 51.8028 19.8C51.6388 20.1553 51.4338 20.4423 51.1878 20.661C50.9691 20.8797 50.7505 21.0573 50.5318 21.194C50.3405 21.3033 50.1628 21.3853 49.9988 21.44C49.8621 21.4947 49.7938 21.5357 49.7938 21.563C49.4111 21.727 49.1925 21.932 49.1378 22.178C49.1105 22.3967 49.1788 22.6017 49.3428 22.793C49.5068 22.957 49.7528 23.08 50.0808 23.162C50.4361 23.2167 50.8188 23.162 51.2288 22.998C51.3928 22.998 51.5295 22.9707 51.6388 22.916C51.7481 22.8613 51.8575 22.793 51.9668 22.711C52.0761 22.629 52.1991 22.547 52.3358 22.465C52.4998 22.3557 52.7185 22.26 52.9918 22.178C53.5658 22.0413 53.9211 22.014 54.0578 22.096C54.1945 22.1507 54.3721 22.1917 54.5908 22.219C54.8095 22.219 55.1101 22.2053 55.4928 22.178C56.4768 22.1507 57.0098 22.1507 57.0918 22.178C57.1465 22.2327 57.2285 22.3693 57.3378 22.588C57.6385 22.5607 57.9801 22.506 58.3628 22.424C58.7728 22.3147 59.2375 22.1917 59.7568 22.055C59.8935 22.0003 60.0165 21.9593 60.1258 21.932C60.2351 21.9047 60.3445 21.8773 60.4538 21.85L61.5198 23.08L61.5608 24.023L60.9048 24.679C60.4401 24.7337 60.0301 24.8567 59.6748 25.048C59.0735 25.294 58.5678 25.3077 58.1578 25.089C57.8298 25.007 57.5428 24.9523 57.2968 24.925C57.0781 24.8977 56.9005 24.9113 56.7638 24.966C56.6818 24.966 56.4768 24.9797 56.1488 25.007C55.8481 25.007 55.5065 25.007 55.1238 25.007C54.7411 25.007 54.3585 25.0207 53.9758 25.048C53.6205 25.048 53.3471 25.048 53.1558 25.048C52.9098 25.1027 52.7595 25.1163 52.7048 25.089C52.6501 25.0617 52.5955 25.0207 52.5408 24.966C52.5135 24.9113 52.4451 24.8567 52.3358 24.802C52.2265 24.72 52.0078 24.6517 51.6798 24.597C51.3245 24.5423 50.8735 24.556 50.3268 24.638C49.8075 24.6927 49.2608 24.7883 48.6868 24.925C48.1128 25.0617 47.5388 25.2393 46.9648 25.458C46.4181 25.6767 45.9671 25.909 45.6118 26.155L45.2018 25.991C44.9011 25.9637 44.7371 26.0047 44.7098 26.114C44.6278 26.114 44.5595 26.1277 44.5048 26.155C44.4775 26.155 44.4365 26.155 44.3818 26.155H44.2588C43.9308 25.991 43.7395 25.8817 43.6848 25.827C43.6301 25.7723 43.6165 25.7313 43.6438 25.704L42.9468 25.622L42.5778 23.572ZM87.5705 7.992C87.6798 8.59333 87.7208 9.19467 87.6935 9.796C87.6935 10.37 87.6798 10.9303 87.6525 11.477C87.6525 12.0237 87.6662 12.5567 87.6935 13.076C87.7482 13.568 87.8848 14.0327 88.1035 14.47C88.0215 14.6067 87.8575 14.88 87.6115 15.29C87.3928 15.7 87.2288 16.1237 87.1195 16.561C87.0102 16.971 87.0238 17.2853 87.1605 17.504C87.2972 17.7227 87.3518 17.8593 87.3245 17.914C87.2972 17.996 87.2698 18.0917 87.2425 18.201C87.2152 18.283 87.1742 18.3923 87.1195 18.529C87.0375 18.7477 86.9008 19.021 86.7095 19.349C86.5455 19.677 86.3132 20.0597 86.0125 20.497C85.7118 20.9343 85.5068 21.317 85.3975 21.645C85.3155 21.9457 85.2608 22.219 85.2335 22.465C85.2335 22.711 85.2335 22.9297 85.2335 23.121C85.2335 23.3123 85.1788 23.49 85.0695 23.654C85.0148 23.7087 84.8918 23.7497 84.7005 23.777C84.5092 23.777 84.2768 23.8043 84.0035 23.859C83.7302 23.9137 83.4295 24.0093 83.1015 24.146C82.8008 24.2553 82.5138 24.433 82.2405 24.679C81.7212 24.7883 81.3112 24.9387 81.0105 25.13C80.7372 25.294 80.3135 25.4033 79.7395 25.458C79.1108 25.5947 78.6872 25.7723 78.4685 25.991C78.2498 26.1823 78.0995 26.278 78.0175 26.278C77.2248 26.278 76.6098 26.3053 76.1725 26.36C75.7352 26.3873 75.4482 26.4283 75.3115 26.483L74.9015 26.565C74.8195 26.5923 74.6418 26.606 74.3685 26.606L68.6285 24.843L65.7175 21.563C65.7175 20.7157 65.7038 20.005 65.6765 19.431C65.6765 18.8297 65.6628 18.3103 65.6355 17.873C65.6355 17.4083 65.6355 16.971 65.6355 16.561C65.6355 16.151 65.6492 15.7 65.6765 15.208C65.7858 15.126 65.9635 14.88 66.2095 14.47C66.4828 14.0327 66.7562 13.5543 67.0295 13.035C67.3028 12.4883 67.5625 11.928 67.8085 11.354C68.0545 10.78 68.2458 10.3017 68.3825 9.919C68.4918 9.509 68.5875 9.19467 68.6695 8.976C68.7515 8.73 68.8198 8.525 68.8745 8.361C68.9565 8.197 69.0248 8.033 69.0795 7.869C69.1342 7.705 69.1888 7.5 69.2435 7.254L70.3095 6.188C70.3095 6.16067 70.4598 5.96933 70.7605 5.614C71.0885 5.23133 71.4575 4.82133 71.8675 4.384C72.3048 3.91933 72.7558 3.49566 73.2205 3.113C73.6852 2.73033 74.0678 2.52533 74.3685 2.498L76.3775 2.293L77.1975 2.375C77.3068 2.40233 77.4025 2.416 77.4845 2.416C77.5938 2.416 77.6895 2.416 77.7715 2.416H78.0585L79.4525 3.687C79.4798 3.98767 79.5482 4.23367 79.6575 4.425C79.7942 4.61633 80.0675 4.76667 80.4775 4.876C80.9148 4.98533 81.1472 5.04 81.1745 5.04C81.2018 5.06733 81.2018 5.09467 81.1745 5.122C81.6938 5.122 82.2405 4.98533 82.8145 4.712C83.3885 4.41133 83.9488 4.261 84.4955 4.261C84.6322 4.261 84.7825 4.32933 84.9465 4.466C85.1105 4.60267 85.2745 4.76667 85.4385 4.958L85.9305 5.491C86.0945 5.68233 86.2448 5.79167 86.3815 5.819C86.3268 6.33833 86.3405 6.721 86.4225 6.967C86.5318 7.18567 86.6548 7.34967 86.7915 7.459C86.9555 7.541 87.1058 7.60933 87.2425 7.664C87.4065 7.71867 87.5158 7.828 87.5705 7.992ZM80.6825 20.456C80.8465 20.3467 80.9832 20.2783 81.0925 20.251C81.2018 20.1963 81.2975 20.1143 81.3795 20.005C81.4888 19.8957 81.5845 19.718 81.6665 19.472C81.7758 19.1987 81.8988 18.7887 82.0355 18.242C82.1995 17.6953 82.3362 17.2443 82.4455 16.889C82.5548 16.5063 82.6368 16.192 82.6915 15.946C82.7462 15.6727 82.7872 15.4267 82.8145 15.208C82.8418 14.9893 82.8555 14.757 82.8555 14.511C82.8555 14.0463 82.8828 13.527 82.9375 12.953C82.9922 12.3517 82.9375 11.723 82.7735 11.067C82.6368 10.6023 82.5412 10.083 82.4865 9.509C82.4592 8.935 82.4182 8.443 82.3635 8.033C82.0902 7.869 81.9262 7.60933 81.8715 7.254C81.8168 6.89866 81.6392 6.557 81.3385 6.229C81.1745 6.09233 80.9968 6.01033 80.8055 5.983C80.6415 5.95567 80.4775 5.95567 80.3135 5.983C80.1768 6.01033 80.0402 6.05133 79.9035 6.106C79.7942 6.16067 79.7122 6.188 79.6575 6.188C79.5755 6.188 79.4115 6.17433 79.1655 6.147C78.9195 6.09233 78.6325 6.07867 78.3045 6.106C78.0038 6.106 77.6895 6.16067 77.3615 6.27C77.0608 6.352 76.8148 6.52967 76.6235 6.803C75.7762 7.75967 75.2842 8.361 75.1475 8.607C74.7648 9.31767 74.4232 10.001 74.1225 10.657C73.8492 11.313 73.6032 11.805 73.3845 12.133C73.2752 12.4063 73.0428 12.8163 72.6875 13.363C72.3595 13.9097 72.1955 14.6887 72.1955 15.7C72.2228 15.782 72.1818 15.987 72.0725 16.315C71.9632 16.6157 71.8538 16.9847 71.7445 17.422C71.6625 17.8593 71.5942 18.3103 71.5395 18.775C71.4848 19.2123 71.5258 19.6087 71.6625 19.964C71.7718 20.2373 72.0042 20.6747 72.3595 21.276C72.7148 21.85 73.3298 22.465 74.2045 23.121C74.7512 23.4763 75.1202 23.8453 75.3115 24.228C75.5028 24.5833 75.6668 24.761 75.8035 24.761C75.9402 24.761 76.1588 24.761 76.4595 24.761C76.7602 24.7337 76.9788 24.7883 77.1155 24.925L80.6825 20.456ZM93.7833 23.244L98.4573 22.547L102.926 21.235L103.992 19.513L103.541 17.75L102.475 16.438C102.175 16.2467 101.86 16.069 101.532 15.905C101.232 15.7137 100.917 15.577 100.589 15.495C100.289 15.3857 99.9743 15.3447 99.6463 15.372C99.3456 15.372 99.0449 15.4677 98.7443 15.659L97.7193 16.397L94.3163 14.798L93.0863 11.641L94.1523 6.352L96.0383 3.851C96.1203 4.04233 96.2843 4.11067 96.5303 4.056C96.7763 4.00133 97.0223 3.892 97.2683 3.728C97.5143 3.564 97.7193 3.37267 97.8833 3.154C98.0473 2.908 98.0883 2.68933 98.0063 2.498C98.4709 2.36133 99.0039 2.22467 99.6053 2.088C100.207 1.924 100.726 1.69167 101.163 1.391L106.452 0.283998L107.313 0.201999L108.051 1.063L107.395 2.826L105.878 3.236L103.91 3.441L100.917 4.958L99.5233 6.762C99.0859 7.172 98.8673 7.623 98.8673 8.115C98.8946 8.57967 99.0176 9.08533 99.2363 9.632C99.5369 10.2607 99.7556 10.6707 99.8923 10.862C100.056 11.026 100.261 11.1763 100.507 11.313L102.926 12.133C103.2 12.3517 103.446 12.5293 103.664 12.666C103.91 12.7753 104.184 12.8437 104.484 12.871C104.785 12.8983 105.209 12.9257 105.755 12.953C106.329 12.9803 107.054 13.0213 107.928 13.076C108.174 13.5407 108.461 13.9507 108.789 14.306C109.117 14.634 109.432 15.0713 109.732 15.618L110.552 17.463L109.322 21.563L108.338 22.629L106.329 25.54H105.304C104.949 25.54 104.512 25.5537 103.992 25.581C103.5 25.581 102.913 25.581 102.229 25.581C101.546 25.581 100.945 25.6493 100.425 25.786C99.9059 25.9227 99.4413 26.073 99.0313 26.237C98.6213 26.3737 98.2659 26.4967 97.9653 26.606C97.6646 26.7153 97.3913 26.7563 97.1453 26.729L95.6693 26.278L93.2093 26.688L92.3483 24.925L92.5943 23.9L93.7833 23.244Z" fill="white"/>
</svg>
