<svg width="40" height="40" viewBox="0 0 40 40" fill="none" xmlns="http://www.w3.org/2000/svg">
<path d="M18.5937 0.046875C18.4453 0.0625 17.9844 0.117188 17.5781 0.15625C15 0.4375 12.1484 1.40625 9.84375 2.78125C6.91406 4.53125 4.53125 6.91406 2.78125 9.84375C1.41406 12.125 0.507812 14.7812 0.140625 17.5781C0.015625 18.5391 0.015625 21.4609 0.140625 22.4219C0.78125 27.2891 2.92187 31.4062 6.54687 34.7734C8.54687 36.6406 11.0391 38.0938 13.75 38.9844C15.8906 39.6953 17.5859 39.9531 20 39.9531C21.7812 39.9531 22.5703 39.8828 24.1406 39.5625C29.5234 38.4609 34.3281 35.0078 37.2187 30.1562C38.5859 27.875 39.4922 25.2188 39.8594 22.4219C39.9844 21.4609 39.9844 18.5391 39.8594 17.5781C39.4922 14.7812 38.5859 12.125 37.2187 9.84375C35.4687 6.91406 33.0859 4.53125 30.1562 2.78125C27.8984 1.42969 25.2031 0.507812 22.5 0.15625C21.8125 0.0625 19.0781 -0.0078125 18.5937 0.046875ZM21.7578 8.82812C23.6875 9.32812 25.4141 10.7422 26.2891 12.5391C26.8359 13.6484 26.9766 14.2891 26.9766 15.625C26.9766 16.5469 26.9453 16.875 26.8047 17.3828C26.2734 19.3438 24.8828 21.0391 23.0859 21.9141C22.375 22.2656 21.3437 22.5781 20.9141 22.5781C20.4453 22.5781 20.7734 22.6562 21.6953 22.7734C25.8281 23.2891 29.4609 25.5391 31.75 29.0156C32.3594 29.9375 33.1562 31.5859 33.0859 31.7891C33.0625 31.875 32.6797 32.2812 32.25 32.6953C29.5937 35.2188 26.4062 36.8203 22.8125 37.4297C21.9297 37.5781 21.4687 37.6094 20 37.6094C18.5312 37.6094 18.0703 37.5781 17.1875 37.4297C13.5937 36.8203 10.4062 35.2188 7.75 32.6953C7.32031 32.2812 6.9375 31.875 6.91406 31.7891C6.84375 31.5859 7.64062 29.9375 8.25 29.0156C10.5391 25.5391 14.1719 23.2891 18.3047 22.7734C19.2266 22.6562 19.5547 22.5781 19.0859 22.5781C18.6562 22.5781 17.625 22.2656 16.9141 21.9141C15.1172 21.0391 13.7266 19.3438 13.1953 17.3828C13.0547 16.875 13.0234 16.5469 13.0234 15.625C13.0234 14.2891 13.1641 13.6484 13.7109 12.5391C14.6719 10.5625 16.5703 9.125 18.7266 8.71094C19.5469 8.55469 20.9297 8.60938 21.7578 8.82812Z" fill="white"/>
</svg>
